<svg width="45" height="45" viewBox="0 0 45 45" fill="none" xmlns="http://www.w3.org/2000/svg">
<g id="li:file-question">
<path id="Vector" fill-rule="evenodd" clip-rule="evenodd" d="M7.71429 4.08746C8.73456 3.0672 10.1183 2.49402 11.5612 2.49402H26.9755C27.4565 2.49402 27.9178 2.68508 28.2578 3.02517L38.2318 12.9991C38.5719 13.3392 38.763 13.8005 38.763 14.2814V36.9496C38.763 38.3925 38.1898 39.7762 37.1695 40.7965C36.1493 41.8168 34.7655 42.3899 33.3226 42.3899H11.5612C10.1183 42.3899 8.73456 41.8168 7.71429 40.7965C6.69403 39.7762 6.12085 38.3925 6.12085 36.9496V7.93437C6.12085 6.4915 6.69403 5.10773 7.71429 4.08746ZM11.5612 6.12092C11.0802 6.12092 10.619 6.31198 10.2789 6.65207C9.93881 6.99216 9.74775 7.45341 9.74775 7.93437V36.9496C9.74775 37.4305 9.93881 37.8918 10.2789 38.2319C10.619 38.572 11.0802 38.763 11.5612 38.763H33.3226C33.8036 38.763 34.2648 38.572 34.6049 38.2319C34.945 37.8918 35.1361 37.4305 35.1361 36.9496V15.0326L26.2244 6.12092H11.5612Z" fill="#500910"/>
<path id="Vector_2" fill-rule="evenodd" clip-rule="evenodd" d="M22.6563 18.8711C22.2072 18.802 21.748 18.8883 21.3546 19.1157C21.3229 19.134 21.2907 19.1514 21.2579 19.1677C21.0382 19.2776 20.7215 19.6008 20.4368 20.1702C19.9889 21.066 18.8996 21.4291 18.0038 20.9812C17.108 20.5333 16.7449 19.444 17.1928 18.5482C17.6274 17.6791 18.3836 16.5705 19.585 15.9496C20.6834 15.3282 21.9595 15.0943 23.2078 15.2863C24.4735 15.481 25.6348 16.102 26.4995 17.0466C26.5394 17.0902 26.5772 17.1357 26.6127 17.183C27.276 18.0675 27.8821 19.1723 27.8821 20.6286C27.8821 22.7766 26.2657 24.1569 25.2698 24.8292C24.7105 25.2067 24.1639 25.4856 23.764 25.6689C23.5616 25.7617 23.3905 25.8328 23.2659 25.8822C23.2034 25.9069 23.1523 25.9264 23.1142 25.9405L23.0671 25.9578L23.0513 25.9635L23.0454 25.9655L23.0429 25.9664L23.0418 25.9668C23.0413 25.967 23.0408 25.9671 22.4417 24.2555L23.0408 25.9671C22.0955 26.298 21.0609 25.7999 20.7301 24.8546C20.3999 23.9111 20.8954 22.8787 21.8373 22.5458M22.6563 18.8711C23.079 18.9361 23.4689 19.1351 23.7691 19.4377L22.6563 18.8711Z" fill="#500910"/>
<path id="Vector_3" fill-rule="evenodd" clip-rule="evenodd" d="M20.6284 31.5093C20.6284 30.5077 21.4403 29.6958 22.4419 29.6958H22.46C23.4615 29.6958 24.2735 30.5077 24.2735 31.5093C24.2735 32.5108 23.4615 33.3227 22.46 33.3227H22.4419C21.4403 33.3227 20.6284 32.5108 20.6284 31.5093Z" fill="#500910"/>
</g>
</svg>
