<svg width="45" height="44" viewBox="0 0 45 44" fill="none" xmlns="http://www.w3.org/2000/svg">
<g id="li:file-plus">
<path id="Vector" fill-rule="evenodd" clip-rule="evenodd" d="M7.71429 3.85504C8.73456 2.83477 10.1183 2.2616 11.5612 2.2616H26.9755C27.4565 2.2616 27.9178 2.45266 28.2578 2.79274L38.2318 12.7667C38.5719 13.1068 38.763 13.5681 38.763 14.049V36.7172C38.763 38.16 38.1898 39.5438 37.1695 40.5641C36.1493 41.5843 34.7655 42.1575 33.3226 42.1575H11.5612C10.1183 42.1575 8.73456 41.5843 7.71429 40.5641C6.69403 39.5438 6.12085 38.16 6.12085 36.7172V7.70195C6.12085 6.25908 6.69403 4.8753 7.71429 3.85504ZM11.5612 5.8885C11.0802 5.8885 10.619 6.07956 10.2789 6.41965C9.93881 6.75973 9.74775 7.22099 9.74775 7.70195V36.7172C9.74775 37.1981 9.93881 37.6594 10.2789 37.9995C10.619 38.3396 11.0802 38.5306 11.5612 38.5306H33.3226C33.8036 38.5306 34.2648 38.3396 34.6049 37.9995C34.945 37.6594 35.1361 37.1981 35.1361 36.7172V14.8002L26.2244 5.8885H11.5612Z" fill="#500910"/>
<path id="Vector_2" fill-rule="evenodd" clip-rule="evenodd" d="M26.0688 2.2616C27.0704 2.2616 27.8823 3.07351 27.8823 4.07505V13.1423H36.9495C37.9511 13.1423 38.763 13.9542 38.763 14.9558C38.763 15.9573 37.9511 16.7692 36.9495 16.7692H26.0688C25.0673 16.7692 24.2554 15.9573 24.2554 14.9558V4.07505C24.2554 3.07351 25.0673 2.2616 26.0688 2.2616Z" fill="#500910"/>
<path id="Vector_3" fill-rule="evenodd" clip-rule="evenodd" d="M22.4419 20.3961C23.4434 20.3961 24.2553 21.208 24.2553 22.2096V33.0903C24.2553 34.0918 23.4434 34.9037 22.4419 34.9037C21.4403 34.9037 20.6284 34.0918 20.6284 33.0903V22.2096C20.6284 21.208 21.4403 20.3961 22.4419 20.3961Z" fill="#500910"/>
<path id="Vector_4" fill-rule="evenodd" clip-rule="evenodd" d="M15.188 27.6499C15.188 26.6483 15.9999 25.8364 17.0014 25.8364H27.8821C28.8837 25.8364 29.6956 26.6483 29.6956 27.6499C29.6956 28.6514 28.8837 29.4633 27.8821 29.4633H17.0014C15.9999 29.4633 15.188 28.6514 15.188 27.6499Z" fill="#500910"/>
</g>
</svg>
