<svg width="45" height="45" viewBox="0 0 45 45" fill="none" xmlns="http://www.w3.org/2000/svg">
<g id="li:file-text">
<path id="Vector" fill-rule="evenodd" clip-rule="evenodd" d="M7.71429 4.0874C8.73456 3.06714 10.1183 2.49396 11.5612 2.49396H26.9755C27.4565 2.49396 27.9178 2.68502 28.2578 3.0251L38.2318 12.9991C38.5719 13.3392 38.763 13.8004 38.763 14.2814V36.9495C38.763 38.3924 38.1898 39.7762 37.1695 40.7964C36.1493 41.8167 34.7655 42.3899 33.3226 42.3899H11.5612C10.1183 42.3899 8.73456 41.8167 7.71429 40.7964C6.69403 39.7762 6.12085 38.3924 6.12085 36.9495V7.93431C6.12085 6.49144 6.69403 5.10766 7.71429 4.0874ZM11.5612 6.12086C11.0802 6.12086 10.619 6.31192 10.2789 6.65201C9.93881 6.99209 9.74775 7.45335 9.74775 7.93431V36.9495C9.74775 37.4305 9.93881 37.8917 10.2789 38.2318C10.619 38.5719 11.0802 38.763 11.5612 38.763H33.3226C33.8036 38.763 34.2648 38.5719 34.6049 38.2318C34.945 37.8917 35.1361 37.4305 35.1361 36.9495V15.0325L26.2244 6.12086H11.5612Z" fill="#500910"/>
<path id="Vector_2" fill-rule="evenodd" clip-rule="evenodd" d="M26.0688 2.49396C27.0704 2.49396 27.8823 3.30587 27.8823 4.30741V13.3747H36.9495C37.9511 13.3747 38.763 14.1866 38.763 15.1881C38.763 16.1897 37.9511 17.0016 36.9495 17.0016H26.0688C25.0673 17.0016 24.2554 16.1897 24.2554 15.1881V4.30741C24.2554 3.30587 25.0673 2.49396 26.0688 2.49396Z" fill="#500910"/>
<path id="Vector_3" fill-rule="evenodd" clip-rule="evenodd" d="M13.3745 24.2553C13.3745 23.2538 14.1864 22.4419 15.188 22.4419H29.6956C30.6971 22.4419 31.509 23.2538 31.509 24.2553C31.509 25.2569 30.6971 26.0688 29.6956 26.0688H15.188C14.1864 26.0688 13.3745 25.2569 13.3745 24.2553Z" fill="#500910"/>
<path id="Vector_4" fill-rule="evenodd" clip-rule="evenodd" d="M13.3745 31.5091C13.3745 30.5076 14.1864 29.6957 15.188 29.6957H29.6956C30.6971 29.6957 31.509 30.5076 31.509 31.5091C31.509 32.5107 30.6971 33.3226 29.6956 33.3226H15.188C14.1864 33.3226 13.3745 32.5107 13.3745 31.5091Z" fill="#500910"/>
<path id="Vector_5" fill-rule="evenodd" clip-rule="evenodd" d="M13.3745 17.0016C13.3745 16 14.1864 15.1881 15.188 15.1881H18.8149C19.8164 15.1881 20.6283 16 20.6283 17.0016C20.6283 18.0031 19.8164 18.815 18.8149 18.815H15.188C14.1864 18.815 13.3745 18.0031 13.3745 17.0016Z" fill="#500910"/>
</g>
</svg>
