<svg width="33" height="32" viewBox="0 0 33 32" fill="none" xmlns="http://www.w3.org/2000/svg">
<g clip-path="url(#clip0_2526_1042)">
<path d="M32.8706 13.7428C32.8706 6.58281 25.6931 0.757812 16.8706 0.757812C8.04811 0.757812 0.870605 6.58331 0.870605 13.7428C0.870605 20.1613 6.5626 25.5368 14.2516 26.5528C14.7726 26.6653 15.4816 26.8968 15.6616 27.3418C15.8226 27.7468 15.7666 28.3798 15.7131 28.7888L15.4846 30.1588C15.4146 30.5638 15.1631 31.7408 16.8706 31.0213C18.5781 30.3018 26.0846 25.5953 29.4421 21.7313H29.4416C31.7606 19.1893 32.8706 16.6083 32.8706 13.7428Z" fill="#1C8E6C"/>
<path d="M13.6191 10.2833H12.4966C12.3246 10.2833 12.1851 10.4233 12.1851 10.5948V17.5662C12.1851 17.6071 12.1931 17.6475 12.2088 17.6852C12.2245 17.7229 12.2474 17.7572 12.2764 17.786C12.3053 17.8148 12.3397 17.8376 12.3775 17.8531C12.4153 17.8686 12.4557 17.8764 12.4966 17.8763H13.6191C13.6599 17.8764 13.7004 17.8686 13.7382 17.8531C13.7759 17.8376 13.8103 17.8148 13.8392 17.786C13.8682 17.7572 13.8911 17.7229 13.9068 17.6852C13.9225 17.6475 13.9306 17.6071 13.9306 17.5662V10.5993C13.9306 10.4278 13.7906 10.2878 13.6191 10.2878M21.3441 10.2828H20.2221C20.0496 10.2828 19.9101 10.4228 19.9101 10.5943V14.7363L16.7101 10.4213C16.7031 10.4103 16.6951 10.3998 16.6861 10.3898L16.6841 10.3878C16.6782 10.381 16.6718 10.3747 16.6651 10.3688L16.6431 10.3488C16.6401 10.3468 16.6381 10.3448 16.6351 10.3428L16.6191 10.3318L16.6091 10.3258L16.5926 10.3158C16.5896 10.3148 16.5856 10.3128 16.5826 10.3108C16.5766 10.3078 16.5711 10.3048 16.5646 10.3028C16.5581 10.3008 16.5576 10.2998 16.5546 10.2998C16.5486 10.2968 16.5421 10.2958 16.5361 10.2938L16.5251 10.2908C16.5191 10.2898 16.5136 10.2878 16.5076 10.2868L16.4946 10.2847C16.4906 10.2837 16.4836 10.2828 16.4781 10.2828L16.4621 10.2818C16.4581 10.2818 16.4551 10.2812 16.4511 10.2812H15.3291C15.1571 10.2812 15.0176 10.4213 15.0176 10.5928V17.5643C15.0176 17.6051 15.0256 17.6455 15.0413 17.6832C15.057 17.7209 15.0799 17.7552 15.1089 17.784C15.1378 17.8128 15.1722 17.8356 15.21 17.8511C15.2478 17.8666 15.2882 17.8744 15.3291 17.8742H16.4511C16.6231 17.8742 16.7631 17.7353 16.7631 17.5643V13.4243L19.9616 17.7443C19.9832 17.7744 20.0099 17.8004 20.0406 17.8213C20.0496 17.8283 20.0566 17.8322 20.0631 17.8362C20.0661 17.8382 20.0691 17.8402 20.0721 17.8412C20.0751 17.8422 20.0821 17.8463 20.0871 17.8483C20.0921 17.8503 20.0971 17.8523 20.1021 17.8553L20.1321 17.8663C20.1594 17.8737 20.1877 17.8774 20.2161 17.8773H21.3381C21.3789 17.8774 21.4194 17.8696 21.4572 17.8541C21.4949 17.8386 21.5293 17.8158 21.5582 17.787C21.5872 17.7582 21.6101 17.7239 21.6258 17.6862C21.6415 17.6485 21.6496 17.6081 21.6496 17.5673V10.5993C21.6496 10.4278 21.5096 10.2878 21.3381 10.2878" fill="#E5E5E5"/>
<path d="M10.9137 16.1306H7.86365V10.5986C7.86365 10.4266 7.72365 10.2871 7.55215 10.2871H6.43015C6.25815 10.2871 6.11865 10.4271 6.11865 10.5986V17.5696C6.11861 17.65 6.1498 17.7273 6.20565 17.7851C6.21165 17.7911 6.21265 17.7931 6.21365 17.7941C6.27015 17.8476 6.34565 17.8811 6.42865 17.8811H10.9127C11.0847 17.8811 11.2242 17.7411 11.2242 17.5696V16.4471C11.2242 16.2751 11.0852 16.1356 10.9127 16.1356M27.5417 12.0286C27.7137 12.0286 27.8532 11.8886 27.8532 11.7171V10.5986C27.8532 10.4266 27.7142 10.2871 27.5417 10.2871H23.0577C22.9737 10.2871 22.8977 10.3206 22.8417 10.3751C22.8357 10.3801 22.8337 10.3821 22.8327 10.3841C22.7792 10.4341 22.7462 10.5151 22.7462 10.5991V17.5706C22.7461 17.651 22.7773 17.7283 22.8332 17.7861L22.8412 17.7941C22.899 17.85 22.9763 17.8812 23.0567 17.8811H27.5407C27.7127 17.8811 27.8522 17.7411 27.8522 17.5696V16.4466C27.8522 16.2746 27.7132 16.1351 27.5407 16.1351H24.4917V14.9566H27.5407C27.5816 14.9568 27.6222 14.9489 27.6601 14.9333C27.698 14.9177 27.7324 14.8948 27.7614 14.8658C27.7903 14.8369 27.8133 14.8024 27.8288 14.7646C27.8444 14.7267 27.8524 14.6861 27.8522 14.6451V13.5186C27.8522 13.3466 27.7132 13.2066 27.5407 13.2066H24.4917V12.0286H27.5407H27.5417Z" fill="#E5E5E5"/>
</g>
<defs>
<clipPath id="clip0_2526_1042">
<rect width="32" height="32" fill="white" transform="translate(0.870605)"/>
</clipPath>
</defs>
</svg>
