<svg width="32" height="32" viewBox="0 0 32 32" fill="none" xmlns="http://www.w3.org/2000/svg">
<path d="M15.0948 0.018506C6.64359 0.420902 -0.025564 7.45909 7.36689e-05 15.9198C0.00787976 18.4967 0.629995 20.929 1.72744 23.0782L0.0424715 31.2572C-0.0486761 31.6996 0.350353 32.087 0.789866 31.9829L8.80435 30.0841C10.8634 31.1098 13.1761 31.7022 15.6238 31.7396C24.2617 31.8715 31.4642 25.0128 31.7334 16.3781C32.022 7.12228 24.3829 -0.423839 15.0948 0.018506ZM24.6578 24.6578C22.3106 27.0049 19.19 28.2975 15.8707 28.2975C13.9271 28.2975 12.0664 27.8615 10.3399 27.0015L9.22381 26.4455L4.31011 27.6097L5.34441 22.5887L4.79454 21.512C3.8983 19.7567 3.44386 17.8587 3.44386 15.8707C3.44386 12.5513 4.73646 9.43074 7.08357 7.08355C9.4097 4.75742 12.5813 3.44377 15.8709 3.44377C19.1902 3.44385 22.3107 4.73645 24.6578 7.08348C27.0049 9.43059 28.2975 12.5512 28.2976 15.8705C28.2975 19.1602 26.9839 22.3318 24.6578 24.6578Z" fill="#1C8E6C"/>
<path d="M23.5718 19.3125L20.4977 18.4298C20.0935 18.3138 19.6583 18.4285 19.3638 18.7285L18.6121 19.4944C18.2951 19.8174 17.8141 19.9212 17.3945 19.7514C15.9403 19.1629 12.8812 16.443 12.1 15.0826C11.8746 14.6901 11.9119 14.1995 12.1886 13.8414L12.845 12.9923C13.1021 12.6596 13.1564 12.2128 12.9863 11.8283L11.693 8.90304C11.3832 8.2024 10.4878 7.99845 9.90291 8.49314C9.04493 9.2188 8.02692 10.3215 7.90317 11.5432C7.68498 13.697 8.6087 16.4122 12.1018 19.6724C16.1372 23.4388 19.3688 23.9364 21.4728 23.4267C22.6662 23.1377 23.62 21.9789 24.2219 21.03C24.6322 20.3831 24.3082 19.524 23.5718 19.3125Z" fill="#1C8E6C"/>
</svg>
